# Blender v2.90.1 OBJ File: 'cube.blend'
# www.blender.org
mtllib cube.mtl
o Cube
v 1.000000 1.000000 -1.000000
v 1.000000 -1.000000 -1.000000
v 1.000000 1.000000 1.000000
v 1.000000 -1.000000 1.000000
v -1.000000 1.000000 -1.000000
v -1.000000 -1.000000 -1.000000
v -1.000000 1.000000 1.000000
v -1.000000 -1.000000 1.000000
vt 0.750000 1.000001
vt 0.500001 1.000005
vt 0.499997 0.749997
vt 0.750009 0.750009
vt 0.750005 0.499998
vt 0.500001 0.499997
vt 0.262854 0.750016
vt 0.262731 0.499932
vt 0.499999 0.250001
vt 0.750004 0.250002
vt 0.999999 0.499997
vt 1.000021 0.750001
vt 0.000002 0.750002
vt 0.000001 0.500002
vn 0.0000 1.0000 0.0000
vn 0.0000 0.0000 1.0000
vn -1.0000 0.0000 0.0000
vn 0.0000 -1.0000 0.0000
vn 1.0000 0.0000 0.0000
vn 0.0000 0.0000 -1.0000
usemtl Material
s off
f 1/1/1 5/2/1 7/3/1 3/4/1
f 4/5/2 3/4/2 7/3/2 8/6/2
f 8/6/3 7/3/3 5/7/3 6/8/3
f 6/9/4 2/10/4 4/5/4 8/6/4
f 2/11/5 1/12/5 3/4/5 4/5/5
f 6/8/6 5/7/6 1/13/6 2/14/6
