# Blender v2.90.1 OBJ File: 'stopSign.blend'
# www.blender.org
mtllib stopSign.mtl
o Cylinder_Cylinder.001
v -0.047817 -0.442879 0.117270
v 0.047817 -0.442879 0.117270
v -0.047817 -0.442879 -0.117270
v 0.047817 -0.442879 -0.117270
v -0.047817 -0.646102 0.313170
v 0.047817 -0.646102 0.313170
v -0.047817 -0.646102 -0.313170
v 0.047817 -0.646102 -0.313170
v -0.055000 0.678992 -0.450000
v 0.055000 0.678992 -0.450000
v -0.055000 0.360794 -0.318198
v 0.055000 0.360794 -0.318198
v -0.055000 0.228992 0.000000
v 0.055000 0.228992 0.000000
v -0.055000 0.360794 0.318198
v 0.055000 0.360794 0.318198
v -0.055000 0.678992 0.450000
v 0.055000 0.678992 0.450000
v -0.055000 0.997190 0.318198
v 0.055000 0.997190 0.318198
v -0.055000 1.128992 -0.000000
v 0.055000 1.128992 -0.000000
v -0.055000 0.997190 -0.318198
v 0.055000 0.997190 -0.318198
v 0.036955 0.235333 -0.015307
v 0.033259 0.238197 -0.022223
v -0.015307 0.244300 -0.036955
v -0.007804 0.245243 -0.039231
v 0.039231 0.232225 -0.007804
v -0.028284 0.240708 -0.028284
v -0.022223 0.242769 0.033259
v -0.015307 0.244300 0.036955
v -0.033259 0.238197 -0.022223
v -0.007804 0.245243 0.039231
v 0.015307 0.244300 0.036955
v 0.040000 0.228992 -0.000000
v 0.015307 0.244300 -0.036955
v 0.022223 0.242769 0.033259
v -0.039231 0.232225 0.007804
v -0.028284 0.240708 0.028284
v -0.036955 0.235333 0.015307
v -0.040000 0.228992 -0.000000
v 0.028284 0.240708 -0.028284
v 0.022223 0.242769 -0.033259
v 0.000000 0.245561 0.040000
v 0.000000 0.245561 -0.040000
v -0.039231 0.232225 -0.007804
v -0.022223 0.242769 -0.033259
v -0.036955 0.235333 -0.015307
v 0.036955 0.235333 0.015307
v 0.033259 0.238197 0.022223
v 0.039231 0.232225 0.007804
v 0.028284 0.240708 0.028284
v 0.007804 0.245243 0.039231
v -0.033259 0.238197 0.022223
v 0.007804 0.245243 -0.039231
v 0.036955 -0.442879 0.015307
v -0.007804 -0.442879 -0.039231
v 0.039231 -0.442879 0.007804
v 0.028284 -0.442879 -0.028284
v 0.028284 -0.442879 0.028284
v 0.033259 -0.442879 0.022223
v 0.022223 -0.442879 0.033259
v 0.015307 -0.442879 0.036955
v 0.033259 -0.442879 -0.022223
v 0.036955 -0.442879 -0.015307
v 0.015307 -0.442879 -0.036955
v 0.022223 -0.442879 -0.033259
v 0.040000 -0.442879 -0.000000
v -0.000000 -0.442879 -0.040000
v 0.039231 -0.442879 -0.007804
v 0.007804 -0.442879 -0.039231
v -0.015307 -0.442879 0.036955
v -0.033259 -0.442879 -0.022223
v -0.036955 -0.442879 -0.015307
v -0.015307 -0.442879 -0.036955
v -0.022223 -0.442879 -0.033259
v -0.022223 -0.442879 0.033259
v -0.000000 -0.442879 0.040000
v 0.007804 -0.442879 0.039231
v -0.028284 -0.442879 -0.028284
v -0.039231 -0.442879 0.007804
v -0.036955 -0.442879 0.015307
v -0.007804 -0.442879 0.039231
v -0.028284 -0.442879 0.028284
v -0.039231 -0.442879 -0.007804
v -0.040000 -0.442879 -0.000000
v -0.033259 -0.442879 0.022223
vt 0.903709 0.167059
vt 0.963394 0.167059
vt 0.963394 0.308095
vt 0.903709 0.308095
vt 0.933551 0.261630
vt 0.938421 0.261168
vt 0.943105 0.259799
vt 0.947420 0.257577
vt 0.951203 0.254585
vt 0.954308 0.250940
vt 0.956615 0.246782
vt 0.958035 0.242270
vt 0.958515 0.237577
vt 0.958035 0.232885
vt 0.956615 0.228372
vt 0.954308 0.224214
vt 0.951203 0.220569
vt 0.947420 0.217578
vt 0.943105 0.215355
vt 0.938421 0.213986
vt 0.933551 0.213524
vt 0.963105 0.312005
vt 0.963105 0.434494
vt 0.903709 0.430584
vt 0.787975 0.064047
vt 0.847660 0.064047
vt 0.847660 0.433446
vt 0.787975 0.433446
vt 0.903709 0.049259
vt 0.963394 0.049259
vt 0.534314 0.181847
vt 0.661145 0.064047
vt 0.661145 0.440683
vt 0.534314 0.322883
vt 0.787975 0.440683
vt 0.661145 0.322883
vt 0.661145 0.181847
vt 0.787975 0.064047
vt 0.520024 0.796494
vt 0.451546 0.796494
vt 0.457377 0.605152
vt 0.525854 0.605152
vt 0.731805 0.980482
vt 0.663155 0.980482
vt 0.663155 0.777355
vt 0.672516 0.777355
vt 0.672996 0.782337
vt 0.674416 0.787127
vt 0.676723 0.791541
vt 0.679828 0.795411
vt 0.683611 0.798586
vt 0.687927 0.800946
vt 0.692610 0.802399
vt 0.697480 0.802890
vt 0.702350 0.802399
vt 0.707033 0.800946
vt 0.711349 0.798586
vt 0.715132 0.795411
vt 0.718236 0.791541
vt 0.720543 0.787127
vt 0.721964 0.782337
vt 0.722443 0.777355
vt 0.731805 0.777355
vt 0.721964 0.773132
vt 0.720543 0.769071
vt 0.718236 0.765328
vt 0.715132 0.762048
vt 0.711349 0.759356
vt 0.707033 0.757355
vt 0.702350 0.756124
vt 0.697480 0.755708
vt 0.692610 0.756124
vt 0.687926 0.757355
vt 0.683611 0.759356
vt 0.679828 0.762048
vt 0.676723 0.765328
vt 0.674416 0.769071
vt 0.672996 0.773132
vt 0.663155 0.605152
vt 0.731805 0.605152
vt 0.594504 0.605152
vt 0.663155 0.802158
vt 0.594504 0.802158
vt 0.663155 0.986639
vt 0.594504 0.986639
vt 0.594504 0.987835
vt 0.525854 0.987835
vt 0.525854 0.796494
vt 0.594504 0.796494
vt 0.005112 0.392521
vt 0.005112 0.219115
vt 0.132370 0.096499
vt 0.312340 0.096499
vt 0.439598 0.219115
vt 0.439598 0.392521
vt 0.312340 0.515137
vt 0.132370 0.515137
vt 0.525854 0.605152
vt 0.594504 0.605152
vt 0.525854 0.987835
vt 0.457377 0.987835
vt 0.312340 0.933774
vt 0.132370 0.933774
vt 0.005112 0.811158
vt 0.005112 0.637753
vt 0.132370 0.515137
vt 0.312340 0.515137
vt 0.439598 0.637753
vt 0.439598 0.811158
vt 0.908945 0.974002
vt 0.904075 0.972058
vt 0.904075 0.568043
vt 0.908945 0.568043
vt 0.921727 0.979103
vt 0.917944 0.977594
vt 0.917944 0.568043
vt 0.921727 0.568043
vt 0.913628 0.975871
vt 0.913628 0.568043
vt 0.944249 0.974002
vt 0.939379 0.972058
vt 0.939379 0.568043
vt 0.944249 0.568043
vt 0.899205 0.974002
vt 0.894522 0.975871
vt 0.894522 0.568043
vt 0.899205 0.568043
vt 0.890206 0.977594
vt 0.886423 0.979103
vt 0.886423 0.568043
vt 0.890206 0.568043
vt 0.868297 0.982021
vt 0.863473 0.981830
vt 0.863473 0.568043
vt 0.868297 0.568043
vt 0.828685 0.568270
vt 0.833555 0.568043
vt 0.833556 0.980727
vt 0.828685 0.980764
vt 0.953248 0.977594
vt 0.948932 0.975871
vt 0.948932 0.568043
vt 0.953248 0.568043
vt 0.838426 0.568270
vt 0.838426 0.980764
vt 0.858903 0.981263
vt 0.858902 0.568043
vt 0.882429 0.980342
vt 0.882429 0.568043
vt 0.819686 0.570037
vt 0.824002 0.568943
vt 0.824002 0.980872
vt 0.819686 0.981048
vt 0.877961 0.981263
vt 0.877961 0.568043
vt 0.847425 0.570037
vt 0.851207 0.571508
vt 0.851208 0.981284
vt 0.847425 0.981048
vt 0.854761 0.980342
vt 0.851208 0.979103
vt 0.851208 0.568043
vt 0.854761 0.568043
vt 0.843109 0.568943
vt 0.843109 0.980872
vt 0.815903 0.571508
vt 0.815903 0.981284
vt 0.929826 0.975871
vt 0.925510 0.977594
vt 0.925510 0.568043
vt 0.929826 0.568043
vt 0.873189 0.981830
vt 0.873189 0.568043
vt 0.934509 0.974002
vt 0.934509 0.568043
vt 0.957031 0.979103
vt 0.957031 0.568043
vt 0.921727 0.979103
vt 0.921727 0.568043
vt 0.928681 0.213986
vt 0.923998 0.215355
vt 0.919682 0.217578
vt 0.915899 0.220569
vt 0.912795 0.224214
vt 0.910488 0.228372
vt 0.909067 0.232884
vt 0.908588 0.237577
vt 0.909067 0.242270
vt 0.910488 0.246782
vt 0.912795 0.250940
vt 0.915899 0.254585
vt 0.919682 0.257576
vt 0.923998 0.259799
vt 0.928681 0.261168
vn -0.0000 1.0000 0.0000
vn 0.0000 0.6940 -0.7200
vn 0.0000 -1.0000 0.0000
vn 0.0000 0.6940 0.7200
vn -1.0000 0.0000 0.0000
vn 1.0000 -0.0000 0.0000
vn 0.0000 -0.3827 -0.9239
vn -0.0000 -0.9239 -0.3827
vn 0.0000 -0.9239 0.3827
vn 0.0000 -0.3827 0.9239
vn 0.0000 0.3827 0.9239
vn 0.0000 0.9239 0.3827
vn 0.0000 0.9239 -0.3827
vn 0.0000 0.3827 -0.9239
vn -0.9952 0.0000 0.0980
vn -0.7730 0.0000 0.6344
vn -0.8819 0.0000 0.4714
vn 0.9952 -0.0000 -0.0980
vn -0.9569 0.0000 -0.2903
vn -0.9952 0.0000 -0.0980
vn -0.7730 0.0000 -0.6344
vn 0.0980 -0.0000 -0.9952
vn 0.0980 -0.0000 0.9952
vn 0.8819 -0.0000 -0.4714
vn -0.0980 0.0000 0.9952
vn 0.2903 -0.0000 -0.9569
vn -0.6344 0.0000 -0.7730
vn 0.4714 -0.0000 0.8819
vn -0.4714 0.0000 -0.8819
vn -0.6344 0.0000 0.7730
vn 0.6344 -0.0000 -0.7730
vn 0.9569 -0.0000 -0.2903
vn -0.4714 0.0000 0.8819
vn 0.6344 -0.0000 0.7730
vn 0.8819 -0.0000 0.4714
vn -0.0980 0.0000 -0.9952
vn -0.8819 0.0000 -0.4714
vn 0.9952 -0.0000 0.0980
vn -0.9569 0.0000 0.2903
vn 0.2903 -0.0000 0.9569
vn 0.4714 -0.0000 -0.8819
vn -0.2903 0.0000 -0.9569
vn -0.2903 0.0000 0.9569
vn 0.9569 -0.0000 0.2903
vn 0.7730 -0.0000 -0.6344
vn 0.7730 -0.0000 0.6344
usemtl None
s off
f 1/1/1 2/2/1 4/3/1 3/4/1 70/5/1 72/6/1 67/7/1 68/8/1 60/9/1 65/10/1 66/11/1 71/12/1 69/13/1 59/14/1 57/15/1 62/16/1 61/17/1 63/18/1 64/19/1 80/20/1 79/21/1
f 3/4/2 4/22/2 8/23/2 7/24/2
f 7/25/3 8/26/3 6/27/3 5/28/3
f 5/29/4 6/30/4 2/2/4 1/1/4
f 3/31/5 7/32/5 5/33/5 1/34/5
f 8/35/6 4/36/6 2/37/6 6/38/6
f 9/39/7 10/40/7 12/41/7 11/42/7
f 11/43/8 12/44/8 14/45/8 36/46/8 29/47/8 25/48/8 26/49/8 43/50/8 44/51/8 37/52/8 56/53/8 46/54/8 28/55/8 27/56/8 48/57/8 30/58/8 33/59/8 49/60/8 47/61/8 42/62/8 13/63/8
f 13/63/9 42/62/9 39/64/9 41/65/9 55/66/9 40/67/9 31/68/9 32/69/9 34/70/9 45/71/9 54/72/9 35/73/9 38/74/9 53/75/9 51/76/9 50/77/9 52/78/9 36/46/9 14/45/9 16/79/9 15/80/9
f 15/81/10 16/79/10 18/82/10 17/83/10
f 17/83/11 18/82/11 20/84/11 19/85/11
f 19/86/12 20/87/12 22/88/12 21/89/12
f 12/90/6 10/91/6 24/92/6 22/93/6 20/94/6 18/95/6 16/96/6 14/97/6
f 21/89/13 22/88/13 24/98/13 23/99/13
f 23/100/14 24/101/14 10/40/14 9/39/14
f 9/102/5 11/103/5 13/104/5 15/105/5 17/106/5 19/107/5 21/108/5 23/109/5
f 39/110/15 42/111/15 87/112/15 82/113/15
f 40/114/16 55/115/16 88/116/16 85/117/16
f 55/115/17 41/118/17 83/119/17 88/116/17
f 29/120/18 36/121/18 69/122/18 71/123/18
f 47/124/19 49/125/19 75/126/19 86/127/19
f 42/111/20 47/124/20 86/127/20 87/112/20
f 33/128/21 30/129/21 81/130/21 74/131/21
f 46/132/22 56/133/22 72/134/22 70/135/22
f 54/136/23 45/137/23 79/138/23 80/139/23
f 26/140/24 25/141/24 66/142/24 65/143/24
f 45/137/25 34/144/25 84/145/25 79/138/25
f 56/133/26 37/146/26 67/147/26 72/134/26
f 30/129/27 48/148/27 77/149/27 81/130/27
f 38/150/28 35/151/28 64/152/28 63/153/28
f 48/148/29 27/154/29 76/155/29 77/149/29
f 31/156/30 40/157/30 85/158/30 78/159/30
f 44/160/31 43/161/31 60/162/31 68/163/31
f 25/141/32 29/120/32 71/123/32 66/142/32
f 32/164/33 31/156/33 78/159/33 73/165/33
f 53/166/34 38/150/34 63/153/34 61/167/34
f 50/168/35 51/169/35 62/170/35 57/171/35
f 28/172/36 46/132/36 70/135/36 58/173/36
f 49/125/37 33/128/37 74/131/37 75/126/37
f 36/121/38 52/174/38 59/175/38 69/122/38
f 41/118/39 39/110/39 82/113/39 83/119/39
f 35/151/40 54/136/40 80/139/40 64/152/40
f 37/146/41 44/160/41 68/163/41 67/147/41
f 27/154/42 28/172/42 58/173/42 76/155/42
f 34/144/43 32/164/43 73/165/43 84/145/43
f 52/174/44 50/168/44 57/171/44 59/175/44
f 43/176/45 26/140/45 65/143/45 60/177/45
f 51/169/46 53/178/46 61/179/46 62/170/46
f 84/180/1 73/181/1 78/182/1 85/183/1 88/184/1 83/185/1 82/186/1 87/187/1 86/188/1 75/189/1 74/190/1 81/191/1 77/192/1 76/193/1 58/194/1 70/5/1 3/4/1 1/1/1 79/21/1
